<svg width="143" height="40" viewBox="0 0 143 40" fill="none" xmlns="http://www.w3.org/2000/svg">
<rect width="40" height="40" rx="10" fill="#307BF4"/>
<circle cx="27.2026" cy="13.1788" r="3.5187" transform="rotate(45 27.2026 13.1788)" fill="#E5E5E5"/>
<circle cx="13.1788" cy="27.2026" r="3.5187" transform="rotate(45 13.1788 27.2026)" fill="#E5E5E5"/>
<circle cx="20.1907" cy="20.1907" r="3.5187" transform="rotate(45 20.1907 20.1907)" fill="#E5E5E5"/>
<circle cx="13.1788" cy="13.1788" r="3.0187" transform="rotate(-45 13.1788 13.1788)" stroke="#E5E5E5"/>
<circle cx="27.2026" cy="27.2026" r="3.0187" transform="rotate(-45 27.2026 27.2026)" stroke="#E5E5E5"/>
<circle cx="20.1907" cy="20.1907" r="3.5187" transform="rotate(-45 20.1907 20.1907)" fill="#E5E5E5"/>
<path d="M58.106 13.3C59.408 13.3 60.535 13.517 61.487 13.951C62.453 14.385 63.195 15.001 63.713 15.799C64.231 16.597 64.49 17.542 64.49 18.634C64.49 19.712 64.231 20.657 63.713 21.469C63.195 22.267 62.453 22.883 61.487 23.317C60.535 23.737 59.408 23.947 58.106 23.947H55.145V28H51.743V13.3H58.106ZM57.917 21.175C58.939 21.175 59.716 20.958 60.248 20.524C60.78 20.076 61.046 19.446 61.046 18.634C61.046 17.808 60.78 17.178 60.248 16.744C59.716 16.296 58.939 16.072 57.917 16.072H55.145V21.175H57.917Z" fill="white"/>
<path d="M72.6733 28.168C71.4833 28.168 70.4123 27.923 69.4603 27.433C68.5223 26.929 67.7873 26.236 67.2553 25.354C66.7233 24.472 66.4573 23.471 66.4573 22.351C66.4573 21.231 66.7233 20.23 67.2553 19.348C67.7873 18.466 68.5223 17.78 69.4603 17.29C70.4123 16.786 71.4833 16.534 72.6733 16.534C73.8633 16.534 74.9273 16.786 75.8653 17.29C76.8033 17.78 77.5383 18.466 78.0703 19.348C78.6023 20.23 78.8683 21.231 78.8683 22.351C78.8683 23.471 78.6023 24.472 78.0703 25.354C77.5383 26.236 76.8033 26.929 75.8653 27.433C74.9273 27.923 73.8633 28.168 72.6733 28.168ZM72.6733 25.48C73.5133 25.48 74.1993 25.2 74.7313 24.64C75.2773 24.066 75.5503 23.303 75.5503 22.351C75.5503 21.399 75.2773 20.643 74.7313 20.083C74.1993 19.509 73.5133 19.222 72.6733 19.222C71.8333 19.222 71.1403 19.509 70.5943 20.083C70.0483 20.643 69.7753 21.399 69.7753 22.351C69.7753 23.303 70.0483 24.066 70.5943 24.64C71.1403 25.2 71.8333 25.48 72.6733 25.48Z" fill="white"/>
<path d="M88.555 16.534C89.955 16.534 91.082 16.954 91.936 17.794C92.804 18.634 93.238 19.88 93.238 21.532V28H89.962V22.036C89.962 21.14 89.766 20.475 89.374 20.041C88.982 19.593 88.415 19.369 87.673 19.369C86.847 19.369 86.189 19.628 85.699 20.146C85.209 20.65 84.964 21.406 84.964 22.414V28H81.688V16.702H84.817V18.025C85.251 17.549 85.79 17.185 86.434 16.933C87.078 16.667 87.785 16.534 88.555 16.534Z" fill="white"/>
<path d="M108.469 12.418V28H105.34V26.698C104.528 27.678 103.352 28.168 101.812 28.168C100.748 28.168 99.7816 27.93 98.9136 27.454C98.0596 26.978 97.3876 26.299 96.8976 25.417C96.4076 24.535 96.1626 23.513 96.1626 22.351C96.1626 21.189 96.4076 20.167 96.8976 19.285C97.3876 18.403 98.0596 17.724 98.9136 17.248C99.7816 16.772 100.748 16.534 101.812 16.534C103.254 16.534 104.381 16.989 105.193 17.899V12.418H108.469ZM102.379 25.48C103.205 25.48 103.891 25.2 104.437 24.64C104.983 24.066 105.256 23.303 105.256 22.351C105.256 21.399 104.983 20.643 104.437 20.083C103.891 19.509 103.205 19.222 102.379 19.222C101.539 19.222 100.846 19.509 100.3 20.083C99.7536 20.643 99.4806 21.399 99.4806 22.351C99.4806 23.303 99.7536 24.066 100.3 24.64C100.846 25.2 101.539 25.48 102.379 25.48Z" fill="white"/>
<path d="M117.507 28.168C116.317 28.168 115.246 27.923 114.294 27.433C113.356 26.929 112.621 26.236 112.089 25.354C111.557 24.472 111.291 23.471 111.291 22.351C111.291 21.231 111.557 20.23 112.089 19.348C112.621 18.466 113.356 17.78 114.294 17.29C115.246 16.786 116.317 16.534 117.507 16.534C118.697 16.534 119.761 16.786 120.699 17.29C121.637 17.78 122.372 18.466 122.904 19.348C123.436 20.23 123.702 21.231 123.702 22.351C123.702 23.471 123.436 24.472 122.904 25.354C122.372 26.236 121.637 26.929 120.699 27.433C119.761 27.923 118.697 28.168 117.507 28.168ZM117.507 25.48C118.347 25.48 119.033 25.2 119.565 24.64C120.111 24.066 120.384 23.303 120.384 22.351C120.384 21.399 120.111 20.643 119.565 20.083C119.033 19.509 118.347 19.222 117.507 19.222C116.667 19.222 115.974 19.509 115.428 20.083C114.882 20.643 114.609 21.399 114.609 22.351C114.609 23.303 114.882 24.066 115.428 24.64C115.974 25.2 116.667 25.48 117.507 25.48Z" fill="white"/>
<path d="M133.355 28L130.877 24.535L128.315 28H124.745L129.092 22.309L124.892 16.702H128.567L130.961 19.999L133.418 16.702H136.904L132.704 22.225L137.072 28H133.355Z" fill="white"/>
<path d="M140.531 28.168C139.957 28.168 139.474 27.972 139.082 27.58C138.69 27.188 138.494 26.698 138.494 26.11C138.494 25.508 138.69 25.025 139.082 24.661C139.474 24.283 139.957 24.094 140.531 24.094C141.105 24.094 141.588 24.283 141.98 24.661C142.372 25.025 142.568 25.508 142.568 26.11C142.568 26.698 142.372 27.188 141.98 27.58C141.588 27.972 141.105 28.168 140.531 28.168Z" fill="white"/>
</svg>
